<?xml version="1.0" encoding="UTF-8"?>
<svg width="358px" height="238px" viewBox="0 0 358 238" version="1.1" xmlns="http://www.w3.org/2000/svg" xmlns:xlink="http://www.w3.org/1999/xlink">
    <title>Banner</title>
    <defs>
        <radialGradient cx="60.6443071%" cy="31.166973%" fx="60.6443071%" fy="31.166973%" r="90.7049766%" gradientTransform="translate(0.606443,0.311670),scale(0.662014,1.000000),rotate(137.721084),translate(-0.606443,-0.311670)" id="radialGradient-1">
            <stop stop-color="#610082" offset="0%"></stop>
            <stop stop-color="#DB01C8" offset="100%"></stop>
        </radialGradient>
    </defs>
    <g id="Banner" stroke="none" stroke-width="1" fill="none" fill-rule="evenodd" transform="translate(0.000000, 1.000000)">
        <path d="M120.867387,64.0012428 C106.662252,76.7846194 97.7282283,95.3265932 97.7282283,115.958542 C97.7282283,130.871681 102.395947,144.692879 110.347917,156.036468 L110.349511,155.246883 C110.282919,152.546313 110.578239,150.179463 112.043253,148.012705 C112.46894,147.383114 113.632777,146.125528 115.435126,143.294762 C115.939882,142.501993 116.350161,140.324588 116.665963,136.762548 C116.711751,136.246536 117.144016,135.850898 117.662056,135.850898 L122.086311,135.850898 L122.22187,135.853898 L122.222696,135.850898 L126.887509,135.850898 C127.405549,135.850898 127.837815,136.246536 127.883602,136.762548 C128.199404,140.324588 128.609683,142.501993 129.114439,143.294762 C130.916788,146.125528 132.080625,147.383114 132.506312,148.012705 C133.904735,150.080974 134.237382,152.331559 134.206816,154.880679 L134.200054,155.246883 L134.199492,177.349721 C139.712619,180.350983 145.67513,182.628961 151.960056,184.056485 L150.763158,174.592204 L150.831055,174.591993 C150.308687,169.965514 152.800448,167.024947 158.306337,165.770291 L158.360158,165.758119 L158.360158,157.648119 L157.173862,157.649023 L157.173862,150.501119 L165.721467,150.501119 L165.721467,157.649023 L164.771158,157.648119 L164.772661,165.87101 C169.984306,167.178162 172.335699,170.085156 171.82684,174.591993 L171.894737,174.592204 L170.487537,185.719359 C174.292812,185.555609 178.019045,185.086337 181.642399,184.335415 C181.726697,183.70513 181.810362,183.061855 181.8367,182.454985 L182.83373,162.902444 C182.827975,158.385915 186.33142,152.906631 189.053597,150.132054 L189.053913,145.78757 L194.386087,145.78757 L194.385985,150.127965 C197.109444,152.901245 200.617265,158.383696 200.609327,162.902444 L201.326788,176.997264 C207.528853,173.536052 213.148591,169.154065 218.001749,164.035852 C213.653382,175.846795 206.571625,186.234194 197.044723,194.113897 C194.407956,196.294767 190.102862,197.645877 187.184077,199.456823 C186.036522,200.168818 184.590081,202.291337 183.765637,204.941814 C183.028298,207.312262 182.921116,210.240524 181.829104,210.772232 C179.791005,211.764596 179.062628,204.941814 174.187317,205.877257 C172.767905,206.149604 171.351716,206.462428 169.934714,206.795267 C166.831725,210.722309 164.710956,216.274901 164.710956,219.268025 C164.710956,225.086696 167.346644,229.237651 167.602783,230.137733 C168.706676,234.016847 168.298608,237.001119 164.15901,237.001119 C160.019411,237.001119 160.496786,234.125385 161.123304,230.351209 C161.67525,227.026253 163.607063,225.633345 163.607063,219.268025 C163.607063,215.943069 163.067503,213.398636 161.399277,210.955637 C160.979829,210.341385 160.520361,209.746875 160.039993,209.171111 C156.361943,209.978449 152.618474,210.606548 148.742137,210.71801 C147.43751,216.977369 153.305244,225.026156 148.092086,225.026156 C142.885569,225.026156 148.008055,217.358685 147.217976,210.733356 L147.524799,210.73564 C144.532039,210.73564 141.579936,210.560944 138.678061,210.221159 C138.432278,211.127469 138.125567,212.044932 137.749979,212.855398 C136.724525,215.06819 135.061077,216.444934 133.496615,214.87596 C130.327519,211.697724 127.759913,214.529905 127.900084,219.590605 C127.931434,220.722487 131.705725,230.366935 127.004639,230.366935 C124.766026,230.591442 124.96404,226.904432 125.885332,222.284687 C126.333055,220.039618 125.43761,216.87346 125.43761,214.87596 C125.43761,211.059343 122.696465,210.610065 121.184246,209.487795 C119.969115,208.586005 119.089762,206.857165 118.61554,204.98376 C117.204763,204.397446 115.815169,203.768482 114.448687,203.099349 C112.922434,207.241477 117.276884,213.051193 113.901583,213.051193 C110.36043,213.051193 114.748752,206.943906 113.066591,202.404211 C109.416544,200.5234 105.938792,198.35218 102.663765,195.921573 C101.553307,199.083457 100.884172,201.339556 100.656461,202.687866 C100.380871,204.319675 100.380871,206.818425 100.656461,210.184117 C101.394188,215.36671 101.763052,219.62384 101.763052,222.955507 C101.763052,227.953007 95.6768042,226.842452 95.6768042,222.955507 C95.6768042,221.021017 95.9264422,219.275008 96.2300995,217.125089 C96.5365769,214.955204 96.8965837,212.380278 96.7833947,210.184117 C96.6904695,208.381124 97.5006773,203.406922 96.2300995,201.299671 C95.0252315,199.3014 87.9105806,187.193226 87.4735207,180.910146 C77.7656788,168.16003 72,152.225859 72,134.940217 C72,102.497072 92.3107178,74.8147485 120.867387,64.0012428 Z M193.358207,141.201414 C195.328212,141.201414 196.925217,142.798418 196.925217,144.768424 L186.514783,144.768424 C186.514783,142.798418 188.111788,141.201414 190.081793,141.201414 L193.358207,141.201414 Z M126.353043,128.462091 C126.905328,128.462091 127.353043,128.909806 127.353043,129.462091 L127.353043,133.576966 C127.353043,134.129251 126.905328,134.576966 126.353043,134.576966 L117.688696,134.576966 C117.136411,134.576966 116.688696,134.129251 116.688696,133.576966 L116.688696,129.462091 C116.688696,128.909806 117.136411,128.462091 117.688696,128.462091 L126.353043,128.462091 Z M250.546125,69.4739872 C253.264466,69.4739872 255.607001,69.8585656 257.573801,70.627734 C259.5406,71.3969024 261.291505,72.5670026 262.826568,74.1380699 L260.236162,76.7401371 C259.084865,75.4963755 257.709725,74.5144732 256.110701,73.7944007 C254.511677,73.0743282 252.656837,72.7142973 250.546125,72.7142973 C248.371453,72.7142973 246.420673,73.1234233 244.693727,73.9416875 C242.966781,74.7599517 241.503696,75.8564093 240.304428,77.2310932 C239.10516,78.6057771 238.185735,80.2013683 237.546125,82.0179149 C236.906516,83.8344614 236.586716,85.7409885 236.586716,87.7375531 C236.586716,89.7341178 236.906516,91.6406448 237.546125,93.4571914 C238.185735,95.2737379 239.10516,96.8693292 240.304428,98.2440131 C241.503696,99.618697 242.966781,100.715155 244.693727,101.533419 C246.420673,102.351683 248.371453,102.760809 250.546125,102.760809 C252.305052,102.760809 253.991997,102.539881 255.607011,102.098018 C257.222025,101.656156 258.66912,101.058832 259.948339,100.306029 L259.948339,88.6703697 L251.841328,88.6703697 L251.841328,85.4300596 L263.402214,85.4300596 L263.402214,102.466235 C261.483385,103.611805 259.3807,104.487335 257.094096,105.09285 C254.807492,105.698366 252.624857,106.001119 250.546125,106.001119 C248.019668,106.001119 245.677133,105.542898 243.51845,104.626442 C241.359768,103.709986 239.488938,102.441696 237.905904,100.821532 C236.32287,99.2013693 235.083645,97.2784773 234.188192,95.0527986 C233.292738,92.82712 232.845018,90.3887292 232.845018,87.7375531 C232.845018,85.0863771 233.292738,82.6479863 234.188192,80.4223077 C235.083645,78.196629 236.32287,76.2737369 237.905904,74.6535738 C239.488938,73.0334107 241.359768,71.7651202 243.51845,70.8486642 C245.677133,69.9322083 248.019668,69.4739872 250.546125,69.4739872 Z M204.158672,81.5515066 C205.853637,81.5515066 207.372687,81.8624424 208.715867,82.4843232 C210.059047,83.106204 211.186342,83.9326384 212.097786,84.9636513 C213.00923,85.9946642 213.704795,87.2056771 214.184502,88.5967263 C214.664209,89.9877754 214.904059,91.4688114 214.904059,93.0398787 L214.904059,94.5127469 L196.195572,94.5127469 C196.291513,95.6583168 196.563343,96.7384094 197.01107,97.753057 C197.458797,98.7677046 198.050427,99.6432342 198.785978,100.379672 C199.521529,101.11611 200.368999,101.697069 201.328413,102.122566 C202.287828,102.548063 203.327178,102.760809 204.446494,102.760809 C206.14146,102.760809 207.604545,102.359865 208.835793,101.557967 C210.067042,100.756068 211.002457,99.8314429 211.642066,98.7840648 L214.088561,100.84608 C212.745381,102.5808 211.266306,103.824543 209.651292,104.577346 C208.036277,105.330149 206.301362,105.706545 204.446494,105.706545 C202.78351,105.706545 201.240475,105.403792 199.817343,104.798277 C198.394212,104.192761 197.170977,103.349962 196.147601,102.269853 C195.124226,101.18975 194.316731,99.9132711 193.725092,98.4403955 C193.133453,96.9675199 192.837638,95.3637461 192.837638,93.629026 C192.837638,91.8943059 193.125458,90.2905321 193.701107,88.8176565 C194.276756,87.3447809 195.076256,86.0683079 196.099631,84.9881991 C197.123006,83.9080904 198.322256,83.0652909 199.697417,82.4597754 C201.072578,81.8542598 202.559648,81.5515066 204.158672,81.5515066 Z M280.671587,81.5515066 C281.758923,81.5515066 282.806268,81.715157 283.813653,82.0424627 C284.821038,82.3697684 285.692493,82.8689021 286.428044,83.5398787 C287.163595,84.2108554 287.755225,85.0536549 288.202952,86.0683025 C288.650679,87.0829501 288.874539,88.293963 288.874539,89.7013774 L288.874539,99.9623593 C288.874539,100.846085 288.914514,101.770709 288.994465,102.736261 C289.074416,103.701813 289.162361,104.495517 289.258303,105.117398 L286.188192,105.117398 C286.09225,104.560978 286.020295,103.955472 285.972325,103.300861 C285.924354,102.646249 285.900369,102.008013 285.900369,101.386132 L285.804428,101.386132 C284.876994,102.924469 283.781679,104.029109 282.51845,104.700085 C281.255221,105.371062 279.712186,105.706545 277.889299,105.706545 C276.897904,105.706545 275.938504,105.567443 275.01107,105.289233 C274.083636,105.011023 273.260151,104.585532 272.54059,104.012747 C271.82103,103.439962 271.24539,102.736265 270.813653,101.901636 C270.381917,101.067006 270.166052,100.093287 270.166052,98.9804472 C270.166052,97.1148048 270.637757,95.6501338 271.581181,94.5863903 C272.524605,93.5226469 273.707865,92.7289425 275.130996,92.2052534 C276.554128,91.6815643 278.073178,91.3542635 279.688192,91.2233412 C281.303206,91.092419 282.782281,91.0269588 284.125461,91.0269588 L285.708487,91.0269588 L285.708487,90.4378115 C285.708487,86.4774127 283.789687,84.4972431 279.95203,84.4972431 C277.32963,84.4972431 275.04306,85.3973202 273.092251,87.1975015 L271.173432,84.8900079 C273.284143,82.6643293 276.450163,81.5515066 280.671587,81.5515066 Z M347.254613,81.5515066 C348.949578,81.5515066 350.468628,81.8624424 351.811808,82.4843232 C353.154988,83.106204 354.282283,83.9326384 355.193727,84.9636513 C356.105171,85.9946642 356.800736,87.2056771 357.280443,88.5967263 C357.76015,89.9877754 358,91.4688114 358,93.0398787 L358,94.5127469 L339.291513,94.5127469 C339.387454,95.6583168 339.659284,96.7384094 340.107011,97.753057 C340.554738,98.7677046 341.146368,99.6432342 341.881919,100.379672 C342.61747,101.11611 343.46494,101.697069 344.424354,102.122566 C345.383769,102.548063 346.423119,102.760809 347.542435,102.760809 C349.237401,102.760809 350.700486,102.359865 351.931734,101.557967 C353.162983,100.756068 354.098398,99.8314429 354.738007,98.7840648 L357.184502,100.84608 C355.841322,102.5808 354.362247,103.824543 352.747232,104.577346 C351.132218,105.330149 349.397303,105.706545 347.542435,105.706545 C345.87945,105.706545 344.336415,105.403792 342.913284,104.798277 C341.490153,104.192761 340.266918,103.349962 339.243542,102.269853 C338.220167,101.18975 337.412672,99.9132711 336.821033,98.4403955 C336.229394,96.9675199 335.933579,95.3637461 335.933579,93.629026 C335.933579,91.8943059 336.221399,90.2905321 336.797048,88.8176565 C337.372697,87.3447809 338.172197,86.0683079 339.195572,84.9881991 C340.218947,83.9080904 341.418197,83.0652909 342.793358,82.4597754 C344.168519,81.8542598 345.655589,81.5515066 347.254613,81.5515066 Z M163.191882,70.3577082 L163.191882,73.5980182 L151.822878,73.5980182 L151.822878,105.117398 L148.369004,105.117398 L148.369004,73.5980182 L137,73.5980182 L137,70.3577082 L163.191882,70.3577082 Z M321.254613,81.5515066 C324.132856,81.5515066 326.259526,82.328846 327.634686,83.883548 C329.009847,85.43825 329.697417,87.6557127 329.697417,90.5360027 L329.697417,105.117398 L326.531365,105.117398 L326.531365,91.7142973 C326.531365,89.390427 326.131615,87.6066377 325.332103,86.3628761 C324.532591,85.1191145 323.045521,84.4972431 320.870849,84.4972431 C319.687571,84.4972431 318.696191,84.7345361 317.896679,85.2091294 C317.097167,85.6837226 316.449572,86.3137766 315.953875,87.0993102 C315.458177,87.8848439 315.098402,88.7767385 314.874539,89.7750208 C314.650675,90.7733032 314.538745,91.8124831 314.538745,92.8925919 L314.538745,105.117398 L311.372694,105.117398 L311.372694,91.7142973 C311.372694,89.390427 310.972944,87.6066377 310.173432,86.3628761 C309.37392,85.1191145 307.88685,84.4972431 305.712177,84.4972431 C305.520294,84.4972431 305.080569,84.5627032 304.392989,84.6936255 C303.705409,84.8245478 302.993854,85.1845786 302.258303,85.7737288 C301.522752,86.3628791 300.859167,87.2465912 300.267528,88.4248916 C299.675889,89.6031921 299.380074,91.239696 299.380074,93.3344524 L299.380074,105.117398 L296.214022,105.117398 L296.214022,87.2465971 C296.214022,86.3956023 296.190037,85.5446203 296.142066,84.6936255 C296.094096,83.8426307 296.038131,82.9916487 295.97417,82.1406539 L299.380074,82.1406539 L299.380074,85.626442 L299.476015,85.626442 C300.243546,84.2844887 301.306881,83.2698563 302.666052,82.5825144 C304.025222,81.8951724 305.376377,81.5515066 306.719557,81.5515066 C307.327186,81.5515066 307.974781,81.6169668 308.662362,81.747889 C309.349942,81.8788113 310.013527,82.1161044 310.653137,82.4597754 C311.292746,82.8034463 311.892371,83.286215 312.45203,83.9080958 C313.011688,84.5299766 313.483393,85.3318635 313.867159,86.3137805 C314.506768,84.8409049 315.522133,83.6789872 316.913284,82.8279924 C318.304435,81.9769976 319.75153,81.5515066 321.254613,81.5515066 Z M170.483395,68.001119 L170.483395,85.8228244 L170.579336,85.8228244 C170.931121,85.2009436 171.378841,84.6281673 171.922509,84.1044782 C172.466177,83.5807891 173.073801,83.1307505 173.745387,82.754349 C174.416978,82.3779475 175.128533,82.0833768 175.880074,81.8706281 C176.631615,81.6578794 177.37515,81.5515066 178.110701,81.5515066 C180.988944,81.5515066 183.115614,82.328846 184.490775,83.883548 C185.865936,85.43825 186.553506,87.6557127 186.553506,90.5360027 L186.553506,105.117398 L183.387454,105.117398 L183.387454,92.4016358 C183.387454,89.8486515 182.955724,87.8930293 182.092251,86.5347108 C181.228778,85.1763922 179.629778,84.4972431 177.295203,84.4972431 C177.135301,84.4972431 176.687581,84.5627032 175.95203,84.6936255 C175.216478,84.8245478 174.440963,85.1845786 173.625461,85.7737288 C172.809959,86.3628791 172.082414,87.2465912 171.442804,88.4248916 C170.803195,89.6031862 170.483395,91.239696 170.483395,93.3344524 L170.483395,105.117398 L167.317343,105.117398 L167.317343,68.001119 L170.483395,68.001119 Z M285.708487,93.6781216 L284.077491,93.6781216 C283.277979,93.6781216 282.278604,93.7190342 281.079336,93.8008606 C279.880068,93.882687 278.728788,94.0790675 277.625461,94.3900079 C276.522135,94.7009483 275.578725,95.183717 274.795203,95.8383283 C274.011681,96.4929397 273.619926,97.3930168 273.619926,98.5385867 C273.619926,99.2913898 273.771831,99.9378088 274.075646,100.477863 C274.37946,101.017918 274.787205,101.459774 275.298893,101.803445 C275.810581,102.147116 276.378226,102.392591 277.001845,102.539879 C277.625464,102.687166 278.257069,102.760809 278.896679,102.760809 C280.047976,102.760809 281.047351,102.564428 281.894834,102.171662 C282.742317,101.778895 283.453872,101.247031 284.02952,100.576054 C284.605169,99.9050778 285.028904,99.1195559 285.300738,98.2194653 C285.572572,97.3193746 285.708487,96.3620199 285.708487,95.3473723 L285.708487,93.6781216 Z M347.254613,84.4972431 C346.231237,84.4972431 345.239857,84.701806 344.280443,85.1109381 C343.321028,85.5200702 342.481553,86.068299 341.761993,86.755641 C341.042432,87.4429795 340.466792,88.2285048 340.035055,89.1122301 C339.603319,89.9959555 339.387454,90.9123977 339.387454,91.8615841 L354.546125,91.8615841 C354.546125,89.668636 353.906525,87.8930293 352.627306,86.5347108 C351.348087,85.1763922 349.557207,84.4972431 347.254613,84.4972431 Z M204.158672,84.4972431 C203.135296,84.4972431 202.143916,84.701806 201.184502,85.1109381 C200.225087,85.5200702 199.385612,86.068299 198.666052,86.755641 C197.946491,87.4429795 197.370851,88.2285048 196.939114,89.1122301 C196.507378,89.9959555 196.291513,90.9123977 196.291513,91.8615841 L211.450185,91.8615841 C211.450185,89.668636 210.810585,87.8930293 209.531365,86.5347108 C208.252146,85.1763922 206.461266,84.4972431 204.158672,84.4972431 Z M78.7154944,24.0008884 C75.3096461,26.9564372 73.167726,31.2437782 73.167726,36.014396 C73.167726,39.4625532 74.2867209,42.658234 76.1930481,45.281043 L76.1933759,45.0984054 C76.1774122,44.4739963 76.2482079,43.9267478 76.5994101,43.4257631 C76.7014582,43.280193 76.9804603,42.9894216 77.4125302,42.3349094 C77.4975511,42.2061171 77.5713906,41.9192702 77.6340486,41.4743686 C77.7035158,40.9808086 78.1258518,40.6137847 78.6242764,40.6137847 L79.0069923,40.6137847 L79.0523043,40.6157847 L79.0973556,40.6137847 L79.4800715,40.6137847 C79.9784961,40.6137847 80.400832,40.9808086 80.4702993,41.4743686 C80.5329572,41.9192702 80.6067967,42.2061171 80.6918177,42.3349094 C81.1238875,42.9894216 81.4028896,43.280193 81.5049378,43.4257631 C81.8171175,43.8710828 81.9077415,44.3529567 81.9128142,44.8930845 L81.9109719,45.0984054 L81.9102625,50.2085865 C83.4849491,51.0354605 85.2125799,51.6249272 87.0416696,51.9272506 L86.4444444,48.2383588 L86.463086,48.237612 C86.3232203,47.2684797 86.9704032,46.6428809 88.4046348,46.3608155 L88.5414444,46.3357381 L88.5414444,44.5877381 L88.2141074,44.5885157 L88.2141074,43.0487381 L90.5736579,43.0487381 L90.5736579,44.5885157 L90.3114444,44.5877381 L90.3114444,46.3597381 C91.751819,46.6428809 92.3990019,47.2684797 92.2591362,48.237612 L92.2777778,48.2383588 L91.6580021,52.0689203 C92.2087687,52.0126636 92.751555,51.9305631 93.2850371,51.8238978 C93.3043933,51.6779902 93.3244094,51.5294445 93.3307158,51.3892962 L93.5697298,46.8684775 C93.5683493,45.8235837 94.4091979,44.5558275 95.0619365,43.9146631 L95.0607826,43.7548981 L94.4521739,43.7548981 L94.4521739,43.0987242 C94.4521739,42.4095689 95.0108447,41.8508981 95.7,41.8508981 C96.3891553,41.8508981 96.9478261,42.4095689 96.9478261,43.0987242 L96.9471739,43.7548981 L96.3387826,43.7548981 L96.3389253,43.9146631 C96.9918347,44.5558275 97.8329063,45.8235837 97.831003,46.8684775 L98.0034352,50.1271594 C99.4893986,49.327271 100.83591,48.3147215 101.998871,47.1321118 C100.957246,49.8624607 99.2598124,52.2635074 96.9764746,54.0849983 C96.344373,54.5892457 95.3123298,54.901641 94.6126211,55.3203569 C94.3375224,55.48498 93.9907728,55.9757358 93.7931322,56.588563 C93.6163728,57.1366434 93.5906784,57.8136981 93.3288947,57.9366364 C92.8403094,58.1660848 92.6656984,56.588563 91.4969595,56.8048504 C91.1570885,56.867747 90.8179882,56.9399804 90.4786944,57.0168363 C89.7341587,57.9237656 89.2252292,59.2085721 89.2252292,59.9009816 C89.2252292,61.2463392 89.8570722,62.2060975 89.9184755,62.4142089 C90.1831074,63.3111139 90.0852828,64.001119 89.0929132,64.001119 C88.1005436,64.001119 88.2149829,63.3362094 88.3651755,62.4635675 C88.4974915,61.6947917 88.9605973,61.3727319 88.9605973,59.9009816 C88.9605973,59.1322058 88.8312508,58.5438976 88.4313335,57.9790422 C88.3306945,57.8368966 88.220445,57.6993233 88.1051807,57.5660917 C87.2236906,57.7530987 86.3267562,57.8982372 85.3980088,57.9240739 C85.0831329,59.3697606 86.4915168,61.2323414 85.2412535,61.2323414 C83.9931821,61.2323414 85.2209788,59.4597039 85.0317368,57.9278918 L85.1052601,57.928176 C84.3876571,57.928176 83.679805,57.8877657 82.9840001,57.809168 C82.9257067,58.0183086 82.8521178,58.2306977 82.7619814,58.4182934 C82.5161532,58.9299215 82.1173815,59.2482438 81.7423393,58.8854753 C80.9826243,58.150623 80.3671024,58.8054626 80.400705,59.9755666 C80.4082206,60.2372736 81.3130163,62.4672037 80.1860435,62.4672037 C79.6493898,62.5191128 79.696859,61.6666249 79.9177166,60.5984759 C80.0250474,60.0793848 79.8103859,59.347325 79.8103859,58.8854753 C79.8103859,58.0030205 79.1532622,57.8991411 78.7907438,57.6396568 C78.4994035,57.4311205 78.2885807,57.0313035 78.1749091,56.5980741 C77.8371611,56.4628587 77.5044499,56.3176272 77.1772648,56.1631308 C76.8100832,57.120162 77.8540822,58.4635638 77.0449001,58.4635638 C76.195538,58.4635638 77.2491179,57.0499586 76.8440804,56.0001444 C75.9634817,55.5636865 75.1265275,55.0591442 74.3386203,54.4941584 C74.3150566,54.5874131 74.2863637,54.681123 74.253477,54.7743501 C74.0451847,55.3647413 73.9172669,55.7957671 73.8696996,56.0674189 C73.8036335,56.4447158 73.8036335,57.0224615 73.8696996,57.800656 C74.046552,58.9989435 74.1349782,59.983251 74.1349782,60.7535786 C74.1349782,61.90907 72.6759462,61.6522942 72.6759462,60.7535786 C72.6759462,60.3062978 72.7357909,59.9025963 72.8085855,59.4055053 C72.8820561,58.9037976 72.9683591,58.3084391 72.9412248,57.800656 C72.9189482,57.3837792 73.1131761,56.2336747 72.8085855,55.746449 C72.5198159,55.2845308 70.8149908,52.4861736 70.7094806,51.0331437 C68.3825722,48.0851407 67,44.4004651 67,40.4032225 C67,32.9016582 71.8693443,26.5009378 78.7154944,24.0008884 Z M123.394616,23.479834 C125.396858,23.7683138 127.683435,24.1103822 129.755224,25.032802 C138.962394,29.1320983 143.106934,39.9106068 139.012314,49.1072745 C136.235909,55.3431821 130.384298,59.2506282 124.033997,59.8422667 C126.882746,58.1810009 129.255592,55.6421556 130.699214,52.3997277 C133.920082,45.1655389 131.443162,36.8374287 125.199712,32.43793 C125.204647,33.1946975 125.07755,33.9644943 124.803367,34.7164993 C124.440929,35.7105269 124.216364,36.4437147 124.129659,36.9160585 C124.001722,37.6130236 124.001722,38.6802695 124.129659,40.1177962 C124.472133,42.3313433 124.64337,44.1496141 124.64337,45.5726086 C124.64337,47.7071004 121.817961,47.2327689 121.817961,45.5726086 C121.817961,44.7463652 121.93385,44.0006241 122.074816,43.0823682 C122.217092,42.1555842 122.384217,41.055803 122.331672,40.1177962 C122.288533,39.3477169 122.664655,37.2231761 122.074816,36.3231442 C121.825459,35.942651 121.030841,34.7039546 120.208709,33.2100946 C119.822025,33.8383032 119.262356,34.1749157 118.732912,33.6898605 C117.544242,32.6008502 116.581181,33.5712862 116.633756,35.3053152 C116.645515,35.6931504 118.061182,38.997783 116.297891,38.997783 C115.458229,39.0747094 115.5325,37.8113698 115.87806,36.2284322 C116.045992,35.459168 115.710128,34.374296 115.710128,33.6898605 C115.710128,32.3821115 114.681975,32.228168 114.114769,31.8436266 C113.51316,31.4357609 113.130986,30.5341415 113.028078,29.6765893 C110.788106,30.0594878 108.645674,30.9068588 106.748907,32.1617139 C109.160071,28.0480654 112.840751,25.0231887 117.198521,23.8178289 C117.993873,23.5978343 119.158841,23.491777 119.980262,23.3807699 C120.303212,23.3371261 122.207595,23.30881 123.394616,23.479834 Z M203.982529,23.141744 C206.25691,23.141744 208.554948,23.4698657 210.876712,24.126119 C213.198476,24.7823723 215.164839,25.9542356 216.775859,27.641744 L210.237046,34.0401815 C208.673409,32.1182969 206.612282,31.157369 204.053603,31.157369 C203.153328,31.157369 202.276756,31.3683044 201.423863,31.7901815 C200.570971,32.2120586 200.14453,32.9386139 200.14453,33.969869 C200.14453,34.8136232 200.582816,35.4347108 201.4594,35.8331503 C202.335985,36.2315898 203.449467,36.5831487 204.799881,36.8878378 C206.150295,37.1925268 207.595453,37.5206485 209.135398,37.8722128 C210.675344,38.223777 212.120501,38.7745528 213.470915,39.5245565 C214.821329,40.2745603 215.934811,41.2940813 216.811396,42.5831503 C217.68798,43.8722192 218.126266,45.5948582 218.126266,47.751119 C218.126266,49.954255 217.640598,51.7706431 216.669248,53.2003378 C215.697897,54.6300324 214.454114,55.7784584 212.93786,56.6456503 C211.421606,57.5128421 209.715846,58.122211 207.820528,58.4737753 C205.925211,58.8253395 204.053613,59.001119 202.205678,59.001119 C199.789148,59.001119 197.348963,58.6612787 194.885051,57.9815878 C192.421138,57.3018969 190.33632,56.0948777 188.630534,54.360494 L195.098273,47.2589315 C196.093314,48.4776876 197.194951,49.4034596 198.403216,50.0362753 C199.611481,50.6690909 201.021102,50.985494 202.632122,50.985494 C203.864079,50.985494 204.977561,50.8097145 205.972603,50.4581503 C206.967644,50.106586 207.465158,49.4620612 207.465158,48.5245565 C207.465158,47.6339271 207.026872,46.965965 206.150288,46.5206503 C205.273704,46.0753355 204.160221,45.7003393 202.809807,45.3956503 C201.459394,45.0909612 200.014236,44.7628395 198.47429,44.4112753 C196.934345,44.059711 195.489187,43.5323725 194.138773,42.829244 C192.788359,42.1261155 191.674877,41.1300317 190.798293,39.8409628 C189.921708,38.5518938 189.483423,36.8292548 189.483423,34.672994 C189.483423,32.6573589 189.898017,30.9230013 190.727219,29.469869 C191.55642,28.0167368 192.646211,26.8214362 193.996625,25.8839315 C195.347039,24.9464268 196.898807,24.2550275 198.651975,23.8097128 C200.405144,23.364398 202.181978,23.141744 203.982529,23.141744 Z M341.795116,23.141744 C344.259029,23.141744 346.497839,23.5636148 348.511614,24.407369 C350.525389,25.2511232 352.231149,26.4581424 353.628946,28.0284628 C355.026742,29.5987831 356.104688,31.485483 356.862815,33.688619 C357.620942,35.891755 358,38.3526679 358,41.0714315 L358,44.376119 L333.26623,44.376119 C333.692676,46.3917541 334.61663,47.9972068 336.038118,49.1925253 C337.459606,50.3878437 339.212748,50.985494 341.297598,50.985494 C343.050766,50.985494 344.531461,50.5987791 345.739726,49.8253378 C346.947991,49.0518964 348.002246,48.0558126 348.902521,46.8370565 L356.365297,52.251119 C354.659511,54.4073798 352.50362,56.0714257 349.897558,57.2433065 C347.291496,58.4151874 344.590709,59.001119 341.795116,59.001119 C339.141672,59.001119 336.642259,58.5792482 334.296804,57.735494 C331.951348,56.8917398 329.913912,55.6847206 328.184435,54.1144003 C326.454958,52.5440799 325.092719,50.65738 324.097677,48.454244 C323.102635,46.251108 322.605122,43.7901951 322.605122,41.0714315 C322.605122,38.3526679 323.102635,35.891755 324.097677,33.688619 C325.092719,31.485483 326.454958,29.5987831 328.184435,28.0284628 C329.913912,26.4581424 331.951348,25.2511232 334.296804,24.407369 C336.642259,23.5636148 339.141672,23.141744 341.795116,23.141744 Z M16.7734763,8.37611902 L28.3585468,40.860494 L28.5006949,40.860494 L40.1568394,8.37611902 L56.8592416,8.37611902 L56.8592416,58.157369 L45.7716895,58.157369 L45.7716895,19.9776815 L45.6295414,19.9776815 L32.4097677,58.157369 L23.9519555,58.157369 L11.2297002,19.9776815 L11.0875521,19.9776815 L11.0875521,58.157369 L0,58.157369 L0,8.37611902 L16.7734763,8.37611902 Z M170.364503,23.141744 C173.06533,23.141744 175.244913,23.5518962 176.903315,24.3722128 C178.561718,25.1925294 179.852884,26.3292368 180.776851,27.782369 C181.700819,29.2355013 182.328633,30.9464217 182.660314,32.9151815 C182.991994,34.8839414 183.157832,37.0167325 183.157832,39.313619 L183.157832,58.157369 L172.496724,58.157369 L172.496724,41.422994 C172.496724,40.4386141 172.461188,39.419093 172.390113,38.3644003 C172.319039,37.3097075 172.105819,36.337061 171.750447,35.4464315 C171.395075,34.5558021 170.850179,33.8292468 170.115743,33.266744 C169.381308,32.7042412 168.327053,32.422994 166.952948,32.422994 C165.578843,32.422994 164.465361,32.6690853 163.612468,33.1612753 C162.759575,33.6534652 162.108069,34.3097087 161.657931,35.1300253 C161.207793,35.9503419 160.911654,36.8761139 160.769506,37.907369 C160.627357,38.9386242 160.556284,40.0167384 160.556284,41.141744 L160.556284,58.157369 L149.895176,58.157369 L149.895176,23.985494 L160.129839,23.985494 L160.129839,28.626119 L160.271987,28.626119 C160.603668,27.9698657 161.07749,27.3136223 161.693468,26.657369 C162.309447,26.0011157 163.043871,25.4151841 163.896764,24.8995565 C164.749657,24.3839289 165.720992,23.9620582 166.8108,23.6339315 C167.900608,23.3058049 169.085163,23.141744 170.364503,23.141744 Z M303.344054,23.141744 C306.044881,23.141744 308.224464,23.5518962 309.882867,24.3722128 C311.54127,25.1925294 312.832435,26.3292368 313.756403,27.782369 C314.68037,29.2355013 315.308184,30.9464217 315.639865,32.9151815 C315.971546,34.8839414 316.137383,37.0167325 316.137383,39.313619 L316.137383,58.157369 L305.476276,58.157369 L305.476276,41.422994 C305.476276,40.4386141 305.440739,39.419093 305.369664,38.3644003 C305.29859,37.3097075 305.08537,36.337061 304.729998,35.4464315 C304.374626,34.5558021 303.82973,33.8292468 303.095295,33.266744 C302.360859,32.7042412 301.306605,32.422994 299.9325,32.422994 C298.558394,32.422994 297.444912,32.6690853 296.592019,33.1612753 C295.739126,33.6534652 295.087621,34.3097087 294.637483,35.1300253 C294.187345,35.9503419 293.891206,36.8761139 293.749057,37.907369 C293.606908,38.9386242 293.535835,40.0167384 293.535835,41.141744 L293.535835,58.157369 L282.874727,58.157369 L282.874727,23.985494 L293.109391,23.985494 L293.109391,28.626119 L293.251539,28.626119 C293.583219,27.9698657 294.057041,27.3136223 294.67302,26.657369 C295.288998,26.0011157 296.023422,25.4151841 296.876315,24.8995565 C297.729208,24.3839289 298.700544,23.9620582 299.790351,23.6339315 C300.880159,23.3058049 302.064715,23.141744 303.344054,23.141744 Z M275.198729,23.985494 L275.198729,58.157369 L264.537622,58.157369 L264.537622,23.985494 L275.198729,23.985494 Z M234.260075,5.00111902 L234.260075,28.626119 L234.402224,28.626119 C234.639138,27.9698657 235.041887,27.3136223 235.610482,26.657369 C236.179078,26.001119 236.86612,25.4151841 237.67163,24.8995565 C238.47714,24.3839289 239.424784,23.9620582 240.514592,23.6339315 C241.6044,23.3058049 242.788955,23.141744 244.068295,23.141744 C246.769122,23.141744 248.948705,23.5518962 250.607107,24.3722128 C252.26551,25.1925294 253.556676,26.3292368 254.480643,27.782369 C255.404611,29.2355013 256.032425,30.9464217 256.364106,32.9151815 C256.695786,34.8839414 256.861624,37.0167325 256.861624,39.313619 L256.861624,58.157369 L246.200516,58.157369 L246.200516,41.422994 C246.200516,40.4386141 246.16498,39.419093 246.093905,38.3644003 C246.022831,37.3097075 245.809611,36.337061 245.454239,35.4464315 C245.098867,34.5558021 244.553971,33.8292468 243.819535,33.266744 C243.0851,32.7042412 242.030845,32.422994 240.65674,32.422994 C239.282635,32.422994 238.169153,32.6690853 237.31626,33.1612753 C236.463367,33.6534652 235.811861,34.3097087 235.361723,35.1300253 C234.911585,35.9503419 234.615446,36.8761139 234.473298,37.907369 C234.331149,38.9386242 234.260075,40.0167384 234.260075,41.141744 L234.260075,58.157369 L223.598968,58.157369 L223.598968,5.00111902 L234.260075,5.00111902 Z M79.5626433,38.90539 C79.9530655,38.90539 80.2695652,39.2218897 80.2695652,39.612312 C80.2695652,40.0027342 79.9530655,40.3192339 79.5626433,40.3192339 L78.4199654,40.3192339 C78.0295432,40.3192339 77.7130435,40.0027342 77.7130435,39.612312 C77.7130435,39.2218897 78.0295432,38.90539 78.4199654,38.90539 L79.5626433,38.90539 Z M340.800079,30.735494 C339.615506,30.735494 338.573097,30.9229921 337.672821,31.297994 C336.772545,31.6729959 336.002584,32.1534598 335.362914,32.7394003 C334.723245,33.3253407 334.225731,34.0050214 333.870359,34.7784628 C333.514987,35.5519041 333.313613,36.3604898 333.26623,37.204244 L347.338892,37.204244 C347.386275,35.4229851 346.793997,33.8995628 345.562041,32.6339315 C344.330085,31.3683002 342.74278,30.735494 340.800079,30.735494 Z M268.962336,0.0626845636 C269.910766,0.199332896 270.993881,0.361365301 271.975255,0.798300998 C276.336546,2.74007292 278.299749,7.8456822 276.360192,12.2019985 C274.420636,16.5583148 269.312789,18.5156898 264.951498,16.5739179 C263.838506,16.0783821 262.881692,15.3767987 262.106063,14.5342037 C264.0652,13.6732511 265.854694,11.8962217 266.922299,9.49834147 C268.459295,6.04619085 268.038846,2.34317201 266.110069,0.203178537 C266.477303,0.111837052 266.981985,0.0648187667 267.34501,0.0157594455 C267.497986,-0.00491391462 268.400063,-0.0183268165 268.962336,0.0626845636 Z" id="Combined-Shape" fill="url(#radialGradient-1)"></path>
    </g>
</svg>