<?xml version="1.0" encoding="UTF-8"?>
<svg width="18px" height="27px" viewBox="0 0 18 27" version="1.1" xmlns="http://www.w3.org/2000/svg" xmlns:xlink="http://www.w3.org/1999/xlink">
    <title>?</title>
    <g id="In-App-Assets" stroke="none" stroke-width="1" fill="none" fill-rule="evenodd">
        <g id="Help-Bookmark" transform="translate(-26.000000, -4.000000)" fill="#572375" fill-rule="nonzero">
            <path d="M34.609,23.8025099 C35.7423333,23.8025099 36.4166667,23.2071775 36.632,22.0165125 C36.7566667,21.4555262 36.8501667,21.0634082 36.9125,20.8401585 C36.9748333,20.6169089 37.0626667,20.3936592 37.176,20.1704095 C37.2893333,19.9471598 37.4621667,19.7010128 37.6945,19.4319683 C37.9268333,19.1629238 38.2356667,18.8509467 38.621,18.496037 C40.015,17.2366799 40.9811667,16.340819 41.5195,15.8084544 C42.0578333,15.2760898 42.5225,14.6435491 42.9135,13.9108322 C43.3045,13.1781154 43.5,12.3251871 43.5,11.3520476 C43.5,10.1155878 43.1571667,8.97071775 42.4715,7.91743725 C41.7858333,6.86415676 40.814,6.03126376 39.556,5.41875826 C38.298,4.80625275 36.8473333,4.5 35.204,4.5 C33.436,4.5 31.889,4.86635843 30.563,5.5990753 C29.237,6.33179216 28.2283333,7.25627477 27.537,8.37252312 C26.8456667,9.48877147 26.5,10.5907089 26.5,11.6783355 C26.5,12.2049758 26.7181667,12.6944077 27.1545,13.1466314 C27.5908333,13.5988551 28.1263333,13.824967 28.761,13.824967 C29.8376667,13.824967 30.5686667,13.1781154 30.954,11.8844122 C31.362,10.6479524 31.8606667,9.71202114 32.45,9.07661823 C33.0393333,8.44121532 33.9573333,8.12351387 35.204,8.12351387 C36.2693333,8.12351387 37.1391667,8.43835315 37.8135,9.0680317 C38.4878333,9.69771026 38.825,10.4704976 38.825,11.3863937 C38.825,11.8557904 38.7145,12.290841 38.4935,12.6915456 C38.2725,13.0922501 38.0005,13.4557464 37.6775,13.7820343 C37.3545,14.1083223 36.8303333,14.5920299 36.105,15.2331572 C35.2776667,15.9658741 34.6203333,16.5984148 34.133,17.1307794 C33.6456667,17.663144 33.2546667,18.2813738 32.96,18.985469 C32.6653333,19.6895641 32.518,20.5224571 32.518,21.484148 C32.518,22.2512109 32.7191667,22.8293703 33.1215,23.2186262 C33.5238333,23.607882 34.0196667,23.8025099 34.609,23.8025099 Z M34.796,30.5 C35.4646667,30.5 36.054,30.271026 36.564,29.8130779 C37.074,29.3551299 37.329,28.7254513 37.329,27.9240423 C37.329,27.2027741 37.0853333,26.595993 36.598,26.1036988 C36.1106667,25.6114047 35.51,25.3652576 34.796,25.3652576 C34.0706667,25.3652576 33.4586667,25.6114047 32.96,26.1036988 C32.4613333,26.595993 32.212,27.2027741 32.212,27.9240423 C32.212,28.7369 32.4698333,29.3694408 32.9855,29.8216645 C33.5011667,30.2738882 34.1046667,30.5 34.796,30.5 Z" id="?"></path>
        </g>
    </g>
</svg>