<?xml version="1.0" encoding="UTF-8"?>
<svg width="151px" height="150px" viewBox="0 0 151 150" version="1.1" xmlns="http://www.w3.org/2000/svg" xmlns:xlink="http://www.w3.org/1999/xlink">
    <title>Never Have I Ever Symbol</title>
    <g id="Never-Have-I-Ever-Symbol" stroke="none" stroke-width="1" fill="none" fill-rule="evenodd" transform="translate(1.000000, 0.000000)">
        <text id="Never" font-family="Avenir-Black, Avenir" font-size="45" font-weight="700" fill="#9C01A1">
            <tspan x="9.165" y="45">Never</tspan>
        </text>
        <text id="Have-I-Ever" font-family="Avenir-Black, Avenir" font-size="22" font-weight="700" fill="#9C01A1">
            <tspan x="14.709" y="70">Have I Ever</tspan>
        </text>
        <path d="M75,81 C91.8446849,81 105.5,94.6553151 105.5,111.5 C105.5,128.344685 91.8446849,142 75,142 C58.1553151,142 44.5,128.344685 44.5,111.5 C44.5,94.6553151 58.1553151,81 75,81 Z M75,111.5 C68.9676142,111.5 64.0773994,116.984512 64.0773994,123.75 C64.0773994,130.515488 68.9676142,136 75,136 C81.0323858,136 85.9226006,130.515488 85.9226006,123.75 C85.9226006,116.984512 81.0323858,111.5 75,111.5 Z M83.632789,95 C80.7332941,95 78.382789,97.3505051 78.382789,100.25 C78.382789,103.149495 80.7332941,105.5 83.632789,105.5 C86.532284,105.5 88.882789,103.149495 88.882789,100.25 C88.882789,97.3505051 86.532284,95 83.632789,95 Z M66.367211,95 C63.467716,95 61.117211,97.3505051 61.117211,100.25 C61.117211,103.149495 63.467716,105.5 66.367211,105.5 C69.2667059,105.5 71.617211,103.149495 71.617211,100.25 C71.617211,97.3505051 69.2667059,95 66.367211,95 Z" id="Combined-Shape" fill="#9C01A1"></path>
        <path d="M36.358738,54.7459058 C38.6838836,54.7459058 36.8171289,50.6902204 36.8016229,50.2142408 C36.7322948,48.0861142 38.0022262,46.8951246 39.5696534,48.2316373 C40.3434323,48.8914225 41.1661693,48.3124738 41.6733566,47.3819501 C42.3273569,46.1820725 42.5591264,44.4245088 42.5591264,44.2664304 C42.5591264,42.72827 39.8144224,42.8502851 37.5213108,42.8502851 C36.6286569,42.8502851 34.2641309,40.9833188 33.2585438,41.3397301 C32.9636464,41.4442509 32.5505186,41.0931964 32.3727741,41.3397301 C31.5996255,42.4120961 32.1054794,45.0985148 33.4799863,45.9658048 C34.2279263,46.4377419 35.5836895,46.6266726 35.5836895,48.2316373 C35.5836895,49.0716263 36.0265744,50.4030602 35.8051319,51.347157 C35.3494632,53.2898532 35.2515258,54.8403155 36.358738,54.7459058 Z" id="Oval" fill="#9B03A0"></path>
        <path d="M83.5763196,58.6695733 C84.8040457,58.6695733 84.9250709,57.4906223 84.5976773,55.9581596 C84.5217112,55.602578 83.7400164,53.9627235 83.7400164,51.6640294 C83.7400164,49.6633381 85.5406814,44.7679471 87.5050431,44.9868704 C89.4694049,45.2057936 84.2878725,43.8922541 83.7400164,43.8922541 C83.3371998,43.8922541 80.7308743,42.7173464 80.3842318,43.8922541 C80.048467,45.030293 81.774198,46.4614338 82.7578356,48.3801807 C83.2525997,49.3452995 83.4126228,50.3504899 83.4126228,51.6640294 C83.4126228,54.1786796 82.839684,54.7289548 82.6759872,56.0424943 C82.4901739,57.5335008 82.3485935,58.6695733 83.5763196,58.6695733 Z" id="Oval" fill="#9B03A0"></path>
    </g>
</svg>