<?xml version="1.0" encoding="UTF-8"?>
<svg width="150px" height="150px" viewBox="0 0 150 150" version="1.1" xmlns="http://www.w3.org/2000/svg" xmlns:xlink="http://www.w3.org/1999/xlink">
    <title>Paranoia Symbol</title>
    <g id="Paranoia-Symbol" stroke="none" stroke-width="1" fill="none" fill-rule="evenodd">
        <path d="M35.03,117.57 C36.57,117.57 37.8358333,117.7625 38.8275,118.1475 C39.8191667,118.5325 40.6125,119.098333 41.2075,119.845 C41.8025,120.591667 42.2166667,121.5075 42.45,122.5925 C42.6574074,123.556944 42.7726337,124.655051 42.795679,125.886821 L42.8,126.355 L42.8,135 L37.97,135 L37.97,132.865 L37.9,132.865 L37.7361364,133.106818 C37.1740152,133.891667 36.452803,134.464394 35.5725,134.825 C34.7747254,135.151799 33.9413163,135.343979 33.0722728,135.401541 C32.0026756,136.754004 31.1875565,139.933119 31.1875565,141.449455 C31.1875565,143.74815 31.803576,145.388004 31.8634415,145.743586 C32.1214461,147.276048 32.0260714,148.454999 31.0585542,148.454999 C30.0910369,148.454999 30.2026103,147.318927 30.3490415,145.82792 C30.4780438,144.514381 30.9295519,143.964106 30.9295519,141.449455 C30.9295519,140.135916 30.8034447,139.130726 30.4135427,138.165607 C29.770261,136.573301 28.7242312,135.316799 28.5381474,134.284941 C28.4482957,134.222982 28.360625,134.157786 28.275,134.09 C27.715,133.646667 27.2716667,133.098333 26.945,132.445 C26.6183333,131.791667 26.455,131.033333 26.455,130.17 C26.455,129.19 26.6358333,128.361667 26.9975,127.685 C27.3591667,127.008333 27.8491667,126.448333 28.4675,126.005 C29.0858333,125.561667 29.7916667,125.2175 30.585,124.9725 C31.3783333,124.7275 32.2008333,124.546667 33.0525,124.43 C33.9041667,124.313333 34.7558333,124.243333 35.6075,124.22 C36.4591667,124.196667 37.2466667,124.185 37.97,124.185 C37.97,123.251667 37.6375,122.510833 36.9725,121.9625 C36.3075,121.414167 35.52,121.14 34.61,121.14 C33.7466667,121.14 32.9591667,121.320833 32.2475,121.6825 C31.6247917,121.998958 31.0601432,122.418138 30.5535547,122.940039 L30.34,123.17 L27.54,120.3 L27.8389,120.033825 C28.7503,119.255775 29.794,118.662 30.97,118.2525 C32.2766667,117.7975 33.63,117.57 35.03,117.57 Z M15.115,110.22 L15.6607143,110.227143 C16.7435714,110.255714 17.775,110.37 18.755,110.57 C19.8983333,110.803333 20.8958333,111.205833 21.7475,111.7775 C22.5991667,112.349167 23.2758333,113.119167 23.7775,114.0875 C24.2791667,115.055833 24.53,116.275 24.53,117.745 C24.53,119.191667 24.2966667,120.405 23.83,121.385 C23.3633333,122.365 22.7216667,123.146667 21.905,123.73 C21.0883333,124.313333 20.12,124.7275 19,124.9725 C18.02,125.186875 16.9685417,125.307461 15.845625,125.334258 L15.36,125.34 L11.37,125.34 L11.3713254,134.582052 C11.3899627,134.685645 11.3997534,134.799409 11.3997534,134.924336 C11.3997534,135.07941 11.2791407,136.803568 10.9387995,137.98064 C10.6748596,138.893478 10.2467079,139.461423 9.84403398,138.814178 C9.02834608,137.503068 8.36747479,138.671421 8.40355308,140.759099 C8.41162239,141.226032 9.38308009,145.204633 8.17307613,145.204633 C7.59688377,145.297248 7.64785033,143.776254 7.88497995,141.870482 C8.00021842,140.944329 7.76974148,139.638202 7.76974148,138.814178 C7.76974148,137.239718 7.06420337,137.054378 6.674976,136.591411 C6.47602742,136.354771 6.24428765,136.111289 6.09878363,135.709089 C5.59016478,134.303176 5.69906919,133.325925 5.90955759,132.603541 L5.91,110.22 L15.115,110.22 Z M108.04,117.57 C109.346667,117.57 110.5775,117.78 111.7325,118.2 C112.8875,118.62 113.890833,119.220833 114.7425,120.0025 C115.594167,120.784167 116.265,121.723333 116.755,122.82 C117.245,123.916667 117.49,125.141667 117.49,126.495 C117.49,127.848333 117.245,129.073333 116.755,130.17 C116.265,131.266667 115.594167,132.205833 114.7425,132.9875 C114.0088,133.660896 113.162539,134.200085 112.203716,134.605066 C112.393615,134.77183 112.5,134.98235 112.5,135.245248 C112.5,135.391617 112.236354,137.018991 111.492405,138.129988 C110.915462,138.991584 109.979569,139.527648 109.099368,138.916736 C107.316363,137.679224 105.871771,138.781992 105.950634,140.75248 C105.968273,141.193202 108.091773,144.948466 105.446837,144.948466 C104.187343,145.035882 104.298751,143.600269 104.81709,141.801476 C105.068989,140.927313 104.565191,139.694503 104.565191,138.916736 C104.565191,137.430657 103.022962,137.255722 102.172154,136.818743 C100.608603,136.015696 100.033176,133.528272 100.91266,132.53534 L100.897403,132.552463 C100.251397,131.864455 99.7272622,131.070301 99.325,130.17 C98.835,129.073333 98.59,127.848333 98.59,126.495 C98.59,125.141667 98.835,123.916667 99.325,122.82 C99.815,121.723333 100.485833,120.784167 101.3375,120.0025 C102.189167,119.220833 103.1925,118.62 104.3475,118.2 C105.5025,117.78 106.733333,117.57 108.04,117.57 Z M68.07,117.57 C69.61,117.57 70.8758333,117.7625 71.8675,118.1475 C72.8591667,118.5325 73.6525,119.098333 74.2475,119.845 C74.8425,120.591667 75.2566667,121.5075 75.49,122.5925 C75.6974074,123.556944 75.8126337,124.655051 75.835679,125.886821 L75.84,126.355 L75.84,135 L71.01,135 L71.01,132.865 L70.94,132.865 L70.7761364,133.106818 C70.2140152,133.891667 69.492803,134.464394 68.6125,134.825 C67.700236,135.198698 66.7413759,135.396367 65.7359195,135.418005 C65.7006523,135.888853 65.5655258,137.193047 65.2688921,138.129988 C64.9961126,138.991584 64.5536217,139.527648 64.1374619,138.916736 C63.2944558,137.679224 62.6114513,138.781992 62.6487379,140.75248 C62.6570775,141.193202 63.6610702,144.948466 62.4105421,144.948466 C61.8150525,145.035882 61.867726,143.600269 62.1127973,141.801476 C62.2318952,140.927313 61.9936994,139.694503 61.9936994,138.916736 C61.9936994,137.430657 61.2645322,137.255722 60.8622692,136.818743 C60.181761,136.079506 59.897144,133.912934 60.1805761,132.798745 C60.1116016,132.686309 60.04625,132.5675 59.985,132.445 C59.6583333,131.791667 59.495,131.033333 59.495,130.17 C59.495,129.19 59.6758333,128.361667 60.0375,127.685 C60.3991667,127.008333 60.8891667,126.448333 61.5075,126.005 C62.1258333,125.561667 62.8316667,125.2175 63.625,124.9725 C64.4183333,124.7275 65.2408333,124.546667 66.0925,124.43 C66.9441667,124.313333 67.7958333,124.243333 68.6475,124.22 C69.4991667,124.196667 70.2866667,124.185 71.01,124.185 C71.01,123.251667 70.6775,122.510833 70.0125,121.9625 C69.3475,121.414167 68.56,121.14 67.65,121.14 C66.7866667,121.14 65.9991667,121.320833 65.2875,121.6825 C64.6647917,121.998958 64.1001432,122.418138 63.5935547,122.940039 L63.38,123.17 L60.58,120.3 L60.8789,120.033825 C61.7903,119.255775 62.834,118.662 64.01,118.2525 C65.3166667,117.7975 66.67,117.57 68.07,117.57 Z M137.405,117.57 C138.945,117.57 140.210833,117.7625 141.2025,118.1475 C142.194167,118.5325 142.9875,119.098333 143.5825,119.845 C144.1775,120.591667 144.591667,121.5075 144.825,122.5925 C145.032407,123.556944 145.147634,124.655051 145.170679,125.886821 L145.175,126.355 L145.175,135 L140.345,135 L140.345,132.865 L140.275,132.865 L140.111136,133.106818 C139.549015,133.891667 138.827803,134.464394 137.9475,134.825 C136.979167,135.221667 135.958333,135.42 134.885,135.42 C134.091667,135.42 133.3275,135.309167 132.5925,135.0875 C131.8575,134.865833 131.21,134.533333 130.65,134.09 C130.09,133.646667 129.646667,133.098333 129.32,132.445 C128.993333,131.791667 128.83,131.033333 128.83,130.17 C128.83,129.19 129.010833,128.361667 129.3725,127.685 C129.734167,127.008333 130.224167,126.448333 130.8425,126.005 C131.460833,125.561667 132.166667,125.2175 132.96,124.9725 C133.753333,124.7275 134.575833,124.546667 135.4275,124.43 C136.279167,124.313333 137.130833,124.243333 137.9825,124.22 C138.834167,124.196667 139.621667,124.185 140.345,124.185 C140.345,123.251667 140.0125,122.510833 139.3475,121.9625 C138.6825,121.414167 137.895,121.14 136.985,121.14 C136.121667,121.14 135.334167,121.320833 134.6225,121.6825 C133.999792,121.998958 133.435143,122.418138 132.928555,122.940039 L132.715,123.17 L129.915,120.3 L130.2139,120.033825 C131.1253,119.255775 132.169,118.662 133.345,118.2525 C134.651667,117.7975 136.005,117.57 137.405,117.57 Z M89.21,117.57 C90.54,117.57 91.6133333,117.774167 92.43,118.1825 C93.2466667,118.590833 93.8825,119.156667 94.3375,119.88 C94.7925,120.603333 95.1016667,121.455 95.265,122.435 C95.405,123.275 95.485,124.175 95.505,125.135 L95.51,125.62 L95.51,135 L90.26,135 L90.26,126.67 L90.2541667,126.174167 C90.2463889,125.839722 90.2308333,125.4975 90.2075,125.1475 C90.1725,124.6225 90.0675,124.138333 89.8925,123.695 C89.7175,123.251667 89.4491667,122.89 89.0875,122.61 C88.7258333,122.33 88.2066667,122.19 87.53,122.19 C86.8533333,122.19 86.305,122.3125 85.885,122.5575 C85.465,122.8025 85.1441667,123.129167 84.9225,123.5375 C84.7008333,123.945833 84.555,124.406667 84.485,124.92 C84.4325,125.305 84.3996875,125.703125 84.3865625,126.114375 L84.38,126.53 L84.38,135 L79.13,135 L79.13,117.99 L84.17,117.99 L84.17,120.3 L84.24,120.3 L84.3464,120.104 C84.4994667,119.842667 84.6973333,119.581333 84.94,119.32 C85.2433333,118.993333 85.605,118.701667 86.025,118.445 C86.445,118.188333 86.9233333,117.978333 87.46,117.815 C87.9966667,117.651667 88.58,117.57 89.21,117.57 Z M125.89,117.99 L125.89,135 L120.64,135 L120.64,117.99 L125.89,117.99 Z M56.31,117.57 C56.6133333,117.57 56.9166667,117.581667 57.22,117.605 C57.4475,117.6225 57.661875,117.653125 57.863125,117.696875 L58.06,117.745 L58.06,122.54 L57.6886111,122.433056 C57.4423148,122.368241 57.1986111,122.316389 56.9575,122.2775 C56.5958333,122.219167 56.2166667,122.19 55.82,122.19 C54.8166667,122.19 54.0233333,122.33 53.44,122.61 C52.8566667,122.89 52.4075,123.280833 52.0925,123.7825 C51.7775,124.284167 51.5733333,124.885 51.48,125.585 C51.4053333,126.145 51.3605333,126.7498 51.3456,127.3994 L51.34,127.895 L51.34,135 L46.09,135 L46.09,117.99 L51.34,117.99 L51.34,120.72 L51.41,120.72 L51.58115,120.412875 C52.10405,119.515125 52.712,118.83 53.405,118.3575 C54.175,117.8325 55.1433333,117.57 56.31,117.57 Z M37.97,127.545 L36.675,127.545 L36.4684028,127.546458 C36.1103009,127.551319 35.6833333,127.568333 35.1875,127.5975 C34.5925,127.6325 34.0208333,127.731667 33.4725,127.895 C32.9241667,128.058333 32.4575,128.303333 32.0725,128.63 C31.6875,128.956667 31.495,129.411667 31.495,129.995 C31.495,130.625 31.7633333,131.091667 32.3,131.395 C32.8366667,131.698333 33.3966667,131.85 33.98,131.85 C34.4933333,131.85 34.9891667,131.78 35.4675,131.64 C35.9458333,131.5 36.3716667,131.301667 36.745,131.045 C37.1183333,130.788333 37.4158333,130.461667 37.6375,130.065 C37.8275,129.725 37.9360714,129.333571 37.9632143,128.890714 L37.97,128.665 L37.97,127.545 Z M71.01,127.545 L69.715,127.545 L69.5084028,127.546458 C69.1503009,127.551319 68.7233333,127.568333 68.2275,127.5975 C67.6325,127.6325 67.0608333,127.731667 66.5125,127.895 C65.9641667,128.058333 65.4975,128.303333 65.1125,128.63 C64.7275,128.956667 64.535,129.411667 64.535,129.995 C64.535,130.625 64.8033333,131.091667 65.34,131.395 C65.8766667,131.698333 66.4366667,131.85 67.02,131.85 C67.5333333,131.85 68.0291667,131.78 68.5075,131.64 C68.9858333,131.5 69.4116667,131.301667 69.785,131.045 C70.1583333,130.788333 70.4558333,130.461667 70.6775,130.065 C70.8675,129.725 70.9760714,129.333571 71.0032143,128.890714 L71.01,128.665 L71.01,127.545 Z M140.345,127.545 L139.05,127.545 L138.843403,127.546458 C138.485301,127.551319 138.058333,127.568333 137.5625,127.5975 C136.9675,127.6325 136.395833,127.731667 135.8475,127.895 C135.299167,128.058333 134.8325,128.303333 134.4475,128.63 C134.0625,128.956667 133.87,129.411667 133.87,129.995 C133.87,130.625 134.138333,131.091667 134.675,131.395 C135.211667,131.698333 135.771667,131.85 136.355,131.85 C136.868333,131.85 137.364167,131.78 137.8425,131.64 C138.320833,131.5 138.746667,131.301667 139.12,131.045 C139.493333,130.788333 139.790833,130.461667 140.0125,130.065 C140.2025,129.725 140.311071,129.333571 140.338214,128.890714 L140.345,128.665 L140.345,127.545 Z M108.04,122.19 C106.71,122.19 105.6775,122.586667 104.9425,123.38 C104.2075,124.173333 103.84,125.211667 103.84,126.495 C103.84,127.778333 104.2075,128.816667 104.9425,129.61 C105.6775,130.403333 106.71,130.8 108.04,130.8 C109.37,130.8 110.4025,130.403333 111.1375,129.61 C111.8725,128.816667 112.24,127.778333 112.24,126.495 C112.24,125.211667 111.8725,124.173333 111.1375,123.38 C110.4025,122.586667 109.37,122.19 108.04,122.19 Z M14.17,114.84 L11.37,114.84 L11.37,120.72 L15.01,120.72 C15.5,120.72 15.9725,120.673333 16.4275,120.58 C16.8825,120.486667 17.2908333,120.329167 17.6525,120.1075 C18.0141667,119.885833 18.3058333,119.5825 18.5275,119.1975 C18.7491667,118.8125 18.86,118.328333 18.86,117.745 C18.86,117.115 18.7141667,116.6075 18.4225,116.2225 C18.1308333,115.8375 17.7575,115.54 17.3025,115.33 C16.8475,115.12 16.34,114.985833 15.78,114.9275 C15.22,114.869167 14.6833333,114.84 14.17,114.84 Z M123.265,109.59 C124.105,109.59 124.8225,109.8875 125.4175,110.4825 C126.0125,111.0775 126.31,111.795 126.31,112.635 C126.31,113.475 126.0125,114.1925 125.4175,114.7875 C124.8225,115.3825 124.105,115.68 123.265,115.68 C122.425,115.68 121.7075,115.3825 121.1125,114.7875 C120.5175,114.1925 120.22,113.475 120.22,112.635 C120.22,111.795 120.5175,111.0775 121.1125,110.4825 C121.7075,109.8875 122.425,109.59 123.265,109.59 Z" id="Combined-Shape" fill="#9C01A1" fill-rule="nonzero"></path>
        <path d="M94.1588795,19.4259697 C107.17314,15.4726123 123.831905,18.7107483 129.94402,20.6191645 C136.056135,22.5275808 137.551865,24.1364134 123.870912,25.9217453 C114.858677,27.0978207 101.573966,27.363615 84.0167808,26.7191283 L84.0167802,26.7191438 C83.4870702,26.6996992 83.0645549,26.2703108 83.0536597,25.740356 C83.0136018,23.7918976 86.7153418,21.6871021 94.1588795,19.4259697 Z" id="Rectangle" fill="#9C01A1" transform="translate(108.742294, 22.306792) rotate(34.000000) translate(-108.742294, -22.306792) "></path>
        <path d="M26.5409885,18.4637948 C39.5552486,14.5104373 56.2140143,17.7485733 62.3261291,19.6569896 C68.4382439,21.5654058 70.0991258,22.356162 56.2530214,24.9595704 C47.1734171,26.6667595 35.0715981,25.8909142 19.9475645,22.6320346 L19.9475654,22.63203 C19.4076747,22.515696 19.0643142,21.9837208 19.1806481,21.4438301 C19.2509482,21.1175768 19.4793739,20.8478985 19.7896171,20.7248843 C21.3008119,20.1256819 23.5512691,19.3719854 26.5409885,18.4637948 Z" id="Rectangle" fill="#9C01A1" transform="translate(42.170024, 21.214974) rotate(-27.000000) translate(-42.170024, -21.214974) "></path>
        <path d="M73.0806563,52.7347468 L73.2641158,52.2426577 C78.3961976,38.7311146 88.5445687,29.8916711 99.0200612,31.1778999 C112.45018,32.8269111 121.33226,50.4945921 118.858744,70.6397699 C116.385227,90.7849476 103.492783,105.779053 90.0626644,104.130042 C81.6756646,103.100248 75.0623545,95.8233313 71.8806856,85.5971858 M51.2630311,34.7635405 C60.7753668,34.7635405 69.0215466,42.0653735 73.0806563,52.7347468 C71.7275165,56.4131796 70.7447948,60.4264929 70.2239821,64.668172 C69.2951564,72.2328501 69.9675422,79.4481853 71.8806856,85.5971858 C67.5226722,94.7203146 59.9168068,100.763541 51.2630311,100.763541 C37.7320547,100.763541 26.7630311,85.9889373 26.7630311,67.7635405 C26.7630311,49.5381438 37.7320547,34.7635405 51.2630311,34.7635405 Z" id="Shape" stroke="#9C01A1" stroke-width="5" fill-opacity="0.5" fill="#FFFFFF"></path>
        <ellipse id="Oval" fill="#9C01A1" transform="translate(90.241318, 75.442656) rotate(7.000000) translate(-90.241318, -75.442656) " cx="90.2413183" cy="75.4426556" rx="3" ry="6"></ellipse>
        <ellipse id="Oval" stroke="#9C01A1" stroke-width="2" transform="translate(90.241318, 74.756813) rotate(7.000000) translate(-90.241318, -74.756813) " cx="90.2413183" cy="74.7568129" rx="6" ry="12.0216659"></ellipse>
        <ellipse id="Oval" fill="#9C01A1" cx="59.0109344" cy="72.5935386" rx="3" ry="6"></ellipse>
        <ellipse id="Oval" stroke="#9C01A1" stroke-width="2" cx="59.0109344" cy="72.5935386" rx="5.25" ry="10.5"></ellipse>
    </g>
</svg>